<svg width="77" height="98" viewBox="0 0 77 98" fill="none" xmlns="http://www.w3.org/2000/svg">
<g clip-path="url(#clip0_31_35)">
<path d="M49.8231 14.6926C58.7177 8.79644 52.3774 2.66932 48.0955 0.342773C61.8515 6.24705 57.0015 12.3781 52.8571 14.7056C64.2928 23.2742 58.2081 32.9869 53.7365 36.7722C83.9034 42.696 77.1086 68.6617 69.9409 80.9039C52.5443 108.348 33.0934 96.3189 25.5424 86.8736C14.8946 66.1722 4.28322 66.9266 0.308533 69.8917C13.8763 59.4692 23.1877 74.9086 26.1474 83.9308C41.8984 99.2928 57.8352 82.831 63.8347 72.6797C75.0117 48.659 55.5213 39.2684 44.3791 37.5756C59.2664 31.2722 54.2115 19.6939 49.8231 14.6926Z" fill="url(#paint0_linear_31_35)"/>
</g>
<defs>
<linearGradient id="paint0_linear_31_35" x1="23.8669" y1="15.9433" x2="75.963" y2="98.5447" gradientUnits="userSpaceOnUse">
<stop stop-color="#DE0D7E"/>
<stop offset="0.510417" stop-color="#EE7464"/>
<stop offset="1" stop-color="#FDD64C"/>
</linearGradient>
<clipPath id="clip0_31_35">
<rect width="76.3403" height="98" fill="white"/>
</clipPath>
</defs>
</svg>
